HIERARCHY
ROOT Hips
{
	OFFSET 0.00000 0.00000 0.00000
	CHANNELS 6 Xposition Yposition Zposition Zrotation Yrotation Xrotation 
	JOINT LHipJoint
	{
		OFFSET 0 0 0
		CHANNELS 3 Zrotation Yrotation Xrotation
		JOINT LeftHip
		{
			OFFSET 3.13874 -1.57224 1.49786
			CHANNELS 3 Zrotation Yrotation Xrotation
			JOINT LeftKnee
			{
				OFFSET 2.10955 -5.79594 0.00000
				CHANNELS 3 Zrotation Yrotation Xrotation
				JOINT LeftAnkle
				{
					OFFSET 2.41843 -6.64458 0.00000
					CHANNELS 3 Zrotation Yrotation Xrotation
					JOINT LeftToe
					{
						OFFSET 0.04713 -0.12948 1.66229
						CHANNELS 3 Zrotation Yrotation Xrotation
						End Site
						{
							OFFSET 0.00000 -0.00000 0.85167
						}
					}
				}
			}
		}
	}
	JOINT RHipJoint
	{
		OFFSET 0 0 0
		CHANNELS 3 Zrotation Yrotation Xrotation
		JOINT RightHip
		{
			OFFSET -3.13988 -1.57224 1.49786
			CHANNELS 3 Zrotation Yrotation Xrotation
			JOINT RightKnee
			{
				OFFSET -2.15006 -5.90725 0.00000
				CHANNELS 3 Zrotation Yrotation Xrotation
				JOINT RightAnkle
				{
					OFFSET -2.34496 -6.44273 0.00000
					CHANNELS 3 Zrotation Yrotation Xrotation
					JOINT RightToe
					{
						OFFSET -0.08699 -0.23900 1.55223
						CHANNELS 3 Zrotation Yrotation Xrotation
						End Site
						{
							OFFSET -0.00000 -0.00000 0.80281
						}
					}
				}
			}
		}
	}
	JOINT lowerback
	{
		OFFSET 0 0 0
		CHANNELS 3 Zrotation Yrotation Xrotation
		JOINT Chest
		{
			OFFSET 0.01292 1.96517 -0.16495
			CHANNELS 3 Zrotation Yrotation Xrotation
			JOINT Chest2
			{
				OFFSET 0.02122 1.88666 0.19706
				CHANNELS 3 Zrotation Yrotation Xrotation
				JOINT lowerneck
				{
					OFFSET 0 0 0
					CHANNELS 3 Zrotation Yrotation Xrotation
					JOINT Neck
					{
						OFFSET -0.01683 1.81591 0.07903
						CHANNELS 3 Zrotation Yrotation Xrotation
						JOINT Head
						{
							OFFSET 0.00815 1.74013 -0.47700
							CHANNELS 3 Zrotation Yrotation Xrotation
							End Site
							{
								OFFSET -0.00204 1.83225 -0.16933
							}
						}
					}
				}
				JOINT LeftCollar
				{
					OFFSET 0 0 0
					CHANNELS 3 Zrotation Yrotation Xrotation
					JOINT LeftShoulder
					{
						OFFSET 3.38482 1.41533 0.19802
CHANNELS 3 Zrotation Xrotation Yrotation
						JOINT LeftElbow
						{
OFFSET 0 -4.327120 0.000000
CHANNELS 3 Zrotation Xrotation Yrotation
							JOINT LeftWrist
							{
OFFSET 0 -3.285870 -0.000000
CHANNELS 3 Zrotation Xrotation Yrotation
								JOINT lhand
								{
									OFFSET 0 0 0
CHANNELS 3 Zrotation Xrotation Yrotation
									JOINT LFingers
									{
OFFSET 0 -0.433160 -0.000000
CHANNELS 3 Zrotation Xrotation Yrotation
										End Site
										{
OFFSET 0 -0.349220 -0.000000
										}
									}
								}
								JOINT LThumb
								{
OFFSET 0 0.000000 0.000000
CHANNELS 3 Zrotation Xrotation Yrotation
									End Site
									{
OFFSET 0 -0.354560 0.354560
									}
								}
							}
						}
					}
				}
				JOINT RightCollar
				{
					OFFSET 0 0 0
					CHANNELS 3 Zrotation Yrotation Xrotation
					JOINT RightShoulder
					{
						OFFSET -3.09725 1.62858 -0.14144
CHANNELS 3 Zrotation Xrotation Yrotation
						JOINT RightElbow
						{
OFFSET 0 -4.291040 0.000000
CHANNELS 3 Zrotation Xrotation Yrotation
							JOINT RightWrist
							{
OFFSET 0 -3.227200 -0.000000
CHANNELS 3 Zrotation Xrotation Yrotation
								JOINT rhand
								{
									OFFSET 0 0 0
CHANNELS 3 Zrotation Xrotation Yrotation
									JOINT RFingers
									{
OFFSET 0 -0.543620 -0.000000
CHANNELS 3 Zrotation Xrotation Yrotation
										End Site
										{
OFFSET 0 -0.438280 -0.000000
										}
									}
								}
								JOINT RThumb
								{
OFFSET 0 0.000000 0.000000
CHANNELS 3 Zrotation Xrotation Yrotation
									End Site
									{
OFFSET 0 -0.444970 0.444970
									}
								}
							}
						}
					}
				}
			}
		}
	}
}
MOTION
Frames: 5
Frame Time: 0.008333333333333333
-0.213302 15.904561 3.237425 -143.560718 -53.979482 178.677987 0.000000 0.000000 0.000000 21.345716 -17.242283 -57.102791 1.953738 8.768807 25.074909 2.902594 -15.292283 -31.018221 0.023980 -0.999848 -2.748473 0.000000 0.000000 0.000000 38.004340 18.383190 24.557888 -0.261760 3.238873 -8.949285 -4.172751 -9.394262 -42.470622 -1.923120 -8.670891 24.792258 3.529314 6.703864 11.334997 -0.877917 9.588506 -11.783048 -5.507646 3.563516 -19.304906 4.374765 -0.217274 -22.188947 3.987851 -3.971558 29.165472 0.070204 -0.875750 13.649515 0.000000 0.000000 0.000000 21.967017 32.713258 -2.650151 19.404081 -29.917397 5.230978 35.305741 18.579657 -21.950237 0.000000 0.000000 0.000000 -7.125000 0.000000 0.000000 7.172018 56.118081 -1.962469 0.000000 0.000000 0.000000 -32.015123 8.413456 37.032882 -47.148853 -51.773356 -23.916823 -16.543885 -7.205060 11.191012 0.000000 0.000000 0.000000 7.125000 0.000000 0.000000 9.417720 41.455694 0.831486
-0.324364 15.949057 3.234816 -143.098304 -54.100996 178.566377 0.000000 0.000000 0.000000 21.495922 -17.654359 -56.879636 1.924370 8.706605 24.881880 2.983160 -15.254349 -31.433631 0.023317 -0.986388 -2.711433 0.000000 0.000000 0.000000 37.466270 18.028685 23.615801 -0.186608 2.764746 -7.625465 -3.539991 -10.346870 -39.970480 -2.159723 -9.187873 26.387248 3.432530 6.674743 11.208502 -0.769471 9.538909 -11.721273 -5.293886 3.578433 -19.179790 4.364620 -0.238433 -22.204060 3.875608 -3.935624 29.020617 0.034298 -0.877090 13.585810 0.000000 0.000000 0.000000 21.496423 32.645166 -2.856787 19.488806 -30.021468 5.273216 35.100855 18.466817 -22.009700 0.000000 0.000000 0.000000 -7.125000 0.000000 0.000000 6.932338 56.138515 -1.900979 0.000000 0.000000 0.000000 -32.323874 8.462728 37.197697 -46.465931 -51.464326 -23.380630 -16.489208 -7.510313 11.247627 0.000000 0.000000 0.000000 7.125000 0.000000 0.000000 9.477099 41.508632 0.824559
-0.434174 15.991261 3.231626 -142.782840 -54.277594 178.456295 0.000000 0.000000 0.000000 21.463403 -18.146265 -56.537760 1.887884 8.627875 24.638533 3.126966 -14.832849 -32.126719 0.022928 -0.977481 -2.686888 0.000000 0.000000 0.000000 35.705584 14.888242 21.475936 -0.138646 2.333910 -6.432342 -2.444386 -11.685551 -34.811767 -2.316405 -9.485989 27.335779 3.328749 6.633006 11.142803 -0.689652 9.469514 -11.668021 -5.115811 3.577188 -19.104716 4.209999 -0.283788 -22.209000 3.921313 -3.956240 29.020694 0.074830 -0.896150 13.590050 0.000000 0.000000 0.000000 21.093438 32.596076 -3.099044 19.529844 -30.071647 5.293793 34.836426 18.164928 -21.916500 0.000000 0.000000 0.000000 -7.125000 0.000000 0.000000 6.641730 55.970358 -1.795098 0.000000 0.000000 0.000000 -32.553957 8.680947 37.330496 -45.736785 -51.116343 -22.813184 -16.605280 -7.358921 11.393145 0.000000 0.000000 0.000000 7.125000 0.000000 0.000000 9.404865 41.668620 0.781032
-0.543983 16.033466 3.228436 -142.467376 -54.454192 178.346214 0.000000 0.000000 0.000000 21.430884 -18.638172 -56.195884 1.851397 8.549145 24.395186 3.270773 -14.411348 -32.819806 0.022539 -0.968573 -2.662343 0.000000 0.000000 0.000000 33.944897 11.747799 19.336070 -0.090685 1.903074 -5.239218 -1.348780 -13.024231 -29.653053 -2.473086 -9.784104 28.284311 3.224969 6.591268 11.077104 -0.609833 9.400120 -11.614769 -4.937735 3.575943 -19.029643 4.055379 -0.329143 -22.213940 3.967019 -3.976856 29.020772 0.115362 -0.915210 13.594290 0.000000 0.000000 0.000000 20.690453 32.546987 -3.341302 19.570881 -30.121825 5.314370 34.571996 17.863040 -21.823300 0.000000 0.000000 0.000000 -7.125000 0.000000 0.000000 6.351121 55.802201 -1.689217 0.000000 0.000000 0.000000 -32.784039 8.899165 37.463294 -45.007639 -50.768360 -22.245738 -16.721352 -7.207529 11.538663 0.000000 0.000000 0.000000 7.125000 0.000000 0.000000 9.332631 41.828609 0.737505
-0.653017 16.073617 3.224746 -142.197487 -54.670080 178.166766 0.000000 0.000000 0.000000 21.272480 -19.196764 -55.679668 1.798709 8.431851 24.034819 3.438544 -12.202594 -33.721291 0.176407 -2.002729 -5.549076 0.000000 0.000000 0.000000 32.548643 9.144050 17.694409 -0.055169 1.320635 -3.633808 -0.729543 -13.484047 -25.760701 -2.789109 -10.308998 30.019103 3.151915 6.543821 11.069802 -0.538428 9.331352 -11.553354 -4.793941 3.568063 -18.976105 3.981944 -0.373096 -22.147311 3.977365 -4.006913 28.979832 0.126770 -0.937000 13.563997 0.000000 0.000000 0.000000 20.319271 32.445710 -3.492057 19.545433 -30.090693 5.301642 34.358601 17.722821 -21.748431 0.000000 0.000000 0.000000 -7.125000 0.000000 0.000000 6.118460 55.667550 -1.606775 0.000000 0.000000 0.000000 -32.971601 9.233553 37.492720 -44.317558 -50.424358 -21.712949 -16.811907 -6.720353 11.759432 0.000000 0.000000 0.000000 7.125000 0.000000 0.000000 9.298837 42.063597 0.680255
